<svg width="33" height="32" viewBox="0 0 33 32" fill="none" xmlns="http://www.w3.org/2000/svg" class="size-8">
                    <path d="M2.6665 11.9556C2.6665 8.47078 2.6665 6.7284 3.34469 5.39739C3.94123 4.22661 4.89311 3.27473 6.0639 2.67818C7.3949 2 9.13729 2 12.6221 2H20.7109C24.1957 2 25.9381 2 27.2691 2.67818C28.4399 3.27473 29.3918 4.22661 29.9883 5.39739C30.6665 6.7284 30.6665 8.47078 30.6665 11.9556V20.0444C30.6665 23.5292 30.6665 25.2716 29.9883 26.6026C29.3918 27.7734 28.4399 28.7253 27.2691 29.3218C25.9381 30 24.1957 30 20.7109 30H12.6221C9.13729 30 7.3949 30 6.0639 29.3218C4.89311 28.7253 3.94123 27.7734 3.34469 26.6026C2.6665 25.2716 2.6665 23.5292 2.6665 20.0444V11.9556Z" fill="white"/>
                    <path d="M22.718 8.52344L16.7309 13.1959L10.6069 8.52344V8.5247L10.6143 8.53101V15.0737L16.6619 19.8471L22.718 15.258V8.52344Z" fill="#EA4335"/>
                    <path d="M24.2901 7.38639L22.7178 8.52292V15.2575L27.6653 11.459V9.17074C27.6653 9.17074 27.0647 5.90258 24.2901 7.38639Z" fill="#FBBC05"/>
                    <path d="M22.7178 15.2575V23.9924H26.5098C26.5098 23.9924 27.5888 23.8813 27.6665 22.6513V11.459L22.7178 15.2575Z" fill="#34A853"/>
                    <path d="M10.6146 23.9996V15.0727L10.6069 15.0664L10.6146 23.9996Z" fill="#C5221F"/>
                    <path d="M10.6066 8.52453L9.04296 7.39431C6.2683 5.9105 5.6665 9.17741 5.6665 9.17741V11.4656L10.6066 15.0672V8.52453Z" fill="#C5221F"/>
                    <path d="M10.6069 8.52344V15.0661L10.6146 15.0724V8.52975L10.6069 8.52344Z" fill="#C5221F"/>
                    <path d="M5.6665 11.4668V22.6591C5.74296 23.8904 6.82323 24.0003 6.82323 24.0003H10.6153L10.6066 15.0671L5.6665 11.4668Z" fill="#4285F4"/>
                  </svg>