<svg xmlns="http://www.w3.org/2000/svg" width="24" height="25" viewBox="0 0 24 25" fill="none">
                  <path d="M4.7999 4.78906H19.1999C19.4386 4.78906 19.6675 4.88388 19.8363 5.05267C20.0051 5.22145 20.0999 5.45037 20.0999 5.68906V20.0891C20.0999 20.3278 20.0051 20.5567 19.8363 20.7255C19.6675 20.8942 19.4386 20.9891 19.1999 20.9891H4.7999C4.56121 20.9891 4.33229 20.8942 4.16351 20.7255C3.99472 20.5567 3.8999 20.3278 3.8999 20.0891V5.68906C3.8999 5.45037 3.99472 5.22145 4.16351 5.05267C4.33229 4.88388 4.56121 4.78906 4.7999 4.78906ZM5.6999 6.58906V19.1891H18.2999V6.58906H5.6999ZM16.7699 16.4351L17.6294 17.2937V17.3387H13.2005V17.2937L14.1041 16.4351C14.1941 16.3451 14.2391 16.2551 14.2391 16.1192V10.7867C14.2391 10.5599 14.2391 10.244 14.285 9.97306L11.3024 17.4296H11.2574L8.1839 10.5599C8.1389 10.3799 8.0939 10.3799 8.0489 10.2899V14.8079C8.003 15.1247 8.0489 15.3956 8.1839 15.6674L9.4043 17.2937V17.3387H6.1499V17.2937L7.3703 15.6215C7.5053 15.3515 7.5503 15.0347 7.5053 14.7629V9.79306C7.5053 9.56716 7.4603 9.29536 7.2803 9.11536L6.4658 7.98406V7.93906H9.6293L12.2501 13.7693L14.5559 7.93906H17.6294V7.98406L16.7708 8.97856C16.6808 9.06856 16.6358 9.20446 16.6358 9.29446V16.1642C16.6358 16.2542 16.6808 16.3901 16.7708 16.4351H16.7699Z" fill="currentColor"/>
                </svg>