<svg xmlns="http://www.w3.org/2000/svg" width="24" height="25" viewBox="0 0 24 25" fill="none">
                  <path d="M12 3.88916C7.0275 3.88916 3 7.91666 3 12.8892C2.99898 14.7785 3.59293 16.6202 4.6976 18.153C5.80226 19.6857 7.36153 20.8317 9.1542 21.4284C9.6042 21.5067 9.7725 21.2367 9.7725 21C9.7725 20.7867 9.7608 20.0784 9.7608 19.3242C7.5 19.7409 6.915 18.7734 6.735 18.2667C6.6333 18.0075 6.195 17.2092 5.8125 16.995C5.4975 16.8267 5.0475 16.41 5.8008 16.3992C6.51 16.3875 7.0158 17.0517 7.185 17.3217C7.995 18.6825 9.2892 18.3 9.8058 18.0642C9.885 17.4792 10.1208 17.0859 10.38 16.8609C8.3775 16.6359 6.285 15.8592 6.285 12.4167C6.285 11.4375 6.6333 10.6284 7.2075 9.99746C7.1175 9.77246 6.8025 8.84996 7.2975 7.61246C7.2975 7.61246 8.0508 7.37666 9.7725 8.53586C10.5052 8.33251 11.2622 8.23017 12.0225 8.23166C12.7875 8.23166 13.5525 8.33246 14.2725 8.53496C15.9933 7.36496 16.7475 7.61336 16.7475 7.61336C17.2425 8.85086 16.9275 9.77336 16.8375 9.99836C17.4108 10.6284 17.76 11.4267 17.76 12.4167C17.76 15.8709 15.6567 16.6359 13.6542 16.8609C13.98 17.1417 14.2617 17.6817 14.2617 18.5259C14.2617 19.7292 14.25 20.6967 14.25 21.0009C14.25 21.2367 14.4192 21.5175 14.8692 21.4275C16.6557 20.8243 18.2081 19.6761 19.3079 18.1444C20.4077 16.6127 20.9995 14.7748 21 12.8892C21 7.91666 16.9725 3.88916 12 3.88916Z" fill="currentColor"/>
                </svg>