<svg xmlns="http://www.w3.org/2000/svg" width="24" height="25" viewBox="0 0 24 25" fill="none">
                  <path d="M12 10.1892C11.2839 10.1892 10.5972 10.4736 10.0908 10.98C9.58446 11.4863 9.3 12.1731 9.3 12.8892C9.3 13.6052 9.58446 14.292 10.0908 14.7983C10.5972 15.3047 11.2839 15.5892 12 15.5892C12.7161 15.5892 13.4028 15.3047 13.9092 14.7983C14.4155 14.292 14.7 13.6052 14.7 12.8892C14.7 12.1731 14.4155 11.4863 13.9092 10.98C13.4028 10.4736 12.7161 10.1892 12 10.1892ZM12 8.38916C13.1935 8.38916 14.3381 8.86327 15.182 9.70718C16.0259 10.5511 16.5 11.6957 16.5 12.8892C16.5 14.0826 16.0259 15.2272 15.182 16.0711C14.3381 16.9151 13.1935 17.3892 12 17.3892C10.8065 17.3892 9.66193 16.9151 8.81802 16.0711C7.97411 15.2272 7.5 14.0826 7.5 12.8892C7.5 11.6957 7.97411 10.5511 8.81802 9.70718C9.66193 8.86327 10.8065 8.38916 12 8.38916ZM17.85 8.16416C17.85 8.46253 17.7315 8.74868 17.5205 8.95966C17.3095 9.17063 17.0234 9.28916 16.725 9.28916C16.4266 9.28916 16.1405 9.17063 15.9295 8.95966C15.7185 8.74868 15.6 8.46253 15.6 8.16416C15.6 7.86579 15.7185 7.57964 15.9295 7.36866C16.1405 7.15769 16.4266 7.03916 16.725 7.03916C17.0234 7.03916 17.3095 7.15769 17.5205 7.36866C17.7315 7.57964 17.85 7.86579 17.85 8.16416ZM12 5.68916C9.7734 5.68916 9.4098 5.69546 8.3739 5.74136C7.6683 5.77466 7.1949 5.86916 6.7557 6.04016C6.3651 6.19136 6.0834 6.37226 5.7837 6.67286C5.50201 6.94502 5.28542 7.27729 5.1501 7.64486C4.9791 8.08586 4.8846 8.55836 4.8522 9.26306C4.8054 10.2567 4.8 10.6041 4.8 12.8892C4.8 15.1158 4.8063 15.4794 4.8522 16.5153C4.8855 17.22 4.98 17.6943 5.1501 18.1326C5.3031 18.5241 5.4831 18.8058 5.7819 19.1046C6.0852 19.407 6.3669 19.5879 6.7539 19.7373C7.1985 19.9092 7.6719 20.0046 8.3739 20.037C9.3675 20.0838 9.7149 20.0892 12 20.0892C14.2266 20.0892 14.5902 20.0829 15.6261 20.037C16.3299 20.0037 16.8042 19.9092 17.2434 19.7391C17.6331 19.587 17.9166 19.4061 18.2154 19.1073C18.5187 18.804 18.6996 18.5223 18.849 18.1353C19.02 17.6916 19.1154 17.2173 19.1478 16.5153C19.1946 15.5217 19.2 15.1743 19.2 12.8892C19.2 10.6626 19.1937 10.299 19.1478 9.26306C19.1145 8.55926 19.02 8.08406 18.849 7.64486C18.7134 7.27766 18.4972 6.94552 18.2163 6.67286C17.9443 6.39102 17.612 6.17441 17.2443 6.03926C16.8033 5.86826 16.3299 5.77376 15.6261 5.74136C14.6325 5.69456 14.2851 5.68916 12 5.68916ZM12 3.88916C14.4453 3.88916 14.7504 3.89816 15.7098 3.94316C16.6683 3.98816 17.3208 4.13846 17.895 4.36166C18.489 4.59026 18.9894 4.89986 19.4898 5.39936C19.9474 5.84927 20.3016 6.39349 20.5275 6.99416C20.7498 7.56746 20.901 8.22086 20.946 9.17936C20.9883 10.1388 21 10.4439 21 12.8892C21 15.3345 20.991 15.6396 20.946 16.599C20.901 17.5575 20.7498 18.21 20.5275 18.7842C20.3022 19.3852 19.948 19.9295 19.4898 20.379C19.0398 20.8364 18.4956 21.1905 17.895 21.4167C17.3217 21.639 16.6683 21.7902 15.7098 21.8352C14.7504 21.8775 14.4453 21.8892 12 21.8892C9.5547 21.8892 9.2496 21.8802 8.2902 21.8352C7.3317 21.7902 6.6792 21.639 6.105 21.4167C5.50409 21.1912 4.95977 20.837 4.5102 20.379C4.05247 19.9291 3.69834 19.3849 3.4725 18.7842C3.2493 18.2109 3.099 17.5575 3.054 16.599C3.0117 15.6396 3 15.3345 3 12.8892C3 10.4439 3.009 10.1388 3.054 9.17936C3.099 8.21996 3.2493 7.56836 3.4725 6.99416C3.69771 6.39312 4.05192 5.84875 4.5102 5.39936C4.9599 4.94147 5.50419 4.58732 6.105 4.36166C6.6792 4.13846 7.3308 3.98816 8.2902 3.94316C9.2496 3.90086 9.5547 3.88916 12 3.88916Z" fill="currentColor"/>
                </svg>