<svg xmlns="http://www.w3.org/2000/svg" width="24" height="25" viewBox="0 0 24 25" fill="none">
                  <path d="M18.8454 8.38471C18.777 8.11651 18.5826 7.91401 18.3603 7.85191C17.967 7.74121 16.05 7.48921 12 7.48921C7.95 7.48921 6.0348 7.74121 5.6379 7.85191C5.4183 7.91311 5.2239 8.11561 5.1546 8.38471C5.0565 8.76631 4.8 10.3656 4.8 12.8892C4.8 15.4128 5.0565 17.0112 5.1546 17.3946C5.223 17.6619 5.4174 17.8644 5.6388 17.9256C6.0348 18.0372 7.95 18.2892 12 18.2892C16.05 18.2892 17.9661 18.0372 18.3621 17.9265C18.5817 17.8653 18.7761 17.6628 18.8454 17.3937C18.9435 17.0121 19.2 15.4092 19.2 12.8892C19.2 10.3692 18.9435 8.76721 18.8454 8.38471ZM20.5887 7.93741C21 9.54121 21 12.8892 21 12.8892C21 12.8892 21 16.2372 20.5887 17.841C20.3601 18.7275 19.6914 19.425 18.8445 19.6608C17.3064 20.0892 12 20.0892 12 20.0892C12 20.0892 6.6963 20.0892 5.1555 19.6608C4.305 19.4214 3.6372 18.7248 3.4113 17.841C3 16.2372 3 12.8892 3 12.8892C3 12.8892 3 9.54121 3.4113 7.93741C3.6399 7.05091 4.3086 6.35341 5.1555 6.11761C6.6963 5.68921 12 5.68921 12 5.68921C12 5.68921 17.3064 5.68921 18.8445 6.11761C19.695 6.35701 20.3628 7.05361 20.5887 7.93741ZM10.2 16.0392V9.73921L15.6 12.8892L10.2 16.0392Z" fill="currentColor"/>
                </svg>