<svg width="33" height="32" viewBox="0 0 33 32" fill="none" xmlns="http://www.w3.org/2000/svg" class="size-5">
            <path d="M2.33337 11.6C2.33337 8.23969 2.33337 6.55953 2.98733 5.27606C3.56258 4.14708 4.48046 3.2292 5.60943 2.65396C6.8929 2 8.57306 2 11.9334 2H20.7334C24.0937 2 25.7738 2 27.0573 2.65396C28.1863 3.2292 29.1042 4.14708 29.6794 5.27606C30.3334 6.55953 30.3334 8.23969 30.3334 11.6V20.4C30.3334 23.7603 30.3334 25.4405 29.6794 26.7239C29.1042 27.8529 28.1863 28.7708 27.0573 29.346C25.7738 30 24.0937 30 20.7334 30H11.9334C8.57306 30 6.8929 30 5.60943 29.346C4.48046 28.7708 3.56258 27.8529 2.98733 26.7239C2.33337 25.4405 2.33337 23.7603 2.33337 20.4V11.6Z" fill="white"/>
            <path d="M23.9695 9.33998C22.5453 8.71399 21.0226 8.25903 19.4307 8C19.2351 8.33209 19.0068 8.77875 18.8493 9.13408C17.157 8.89498 15.4802 8.89498 13.8191 9.13408C13.6616 8.77875 13.428 8.33209 13.2308 8C11.6371 8.25903 10.1126 8.71565 8.68855 9.3433C5.81613 13.4213 5.03746 17.3981 5.4268 21.3184C7.33194 22.6551 9.17824 23.467 10.9934 23.9983C11.4416 23.4189 11.8413 22.8029 12.1856 22.1536C11.5298 21.9195 10.9017 21.6306 10.3082 21.2951C10.4656 21.1856 10.6196 21.071 10.7685 20.9531C14.3884 22.5438 18.3215 22.5438 21.8982 20.9531C22.0487 21.071 22.2028 21.1856 22.3585 21.2951C21.7632 21.6322 21.1334 21.9211 20.4776 22.1553C20.8219 22.8029 21.2199 23.4205 21.6698 24C23.4867 23.4687 25.3347 22.6567 27.2399 21.3184C27.6967 16.7738 26.4595 12.8335 23.9695 9.33998ZM12.6788 18.9075C11.5921 18.9075 10.701 17.9543 10.701 16.7937C10.701 15.6331 11.5731 14.6783 12.6788 14.6783C13.7845 14.6783 14.6756 15.6314 14.6566 16.7937C14.6584 17.9543 13.7845 18.9075 12.6788 18.9075ZM19.9879 18.9075C18.9012 18.9075 18.01 17.9543 18.01 16.7937C18.01 15.6331 18.8822 14.6783 19.9879 14.6783C21.0936 14.6783 21.9847 15.6314 21.9657 16.7937C21.9657 17.9543 21.0936 18.9075 19.9879 18.9075Z" fill="#5865F2"/>
          </svg>