<svg xmlns:xlink="http://www.w3.org/1999/xlink" xmlns="http://www.w3.org/2000/svg" width="17" height="16" viewBox="0 0 17 16" fill="none">
  <path d="M8.01266 16C12.4379 16 16.0253 12.4183 16.0253 8C16.0253 3.58172 12.4379 0 8.01266 0C3.58739 0 0 3.58172 0 8C0 12.4183 3.58739 16 8.01266 16Z" fill="#627EEA"/>
  <path d="M8.2627 2V6.43521L12.0171 8.11044L8.2627 2Z" fill="white" fill-opacity="0.602"/>
  <path d="M8.26224 2L4.50781 8.11044L8.26224 6.43521V2Z" fill="white"/>
  <path d="M8.2627 10.9827V13.9964L12.0193 8.80664L8.2627 10.9827Z" fill="white" fill-opacity="0.602"/>
  <path d="M8.26224 13.9964V10.9827L4.50781 8.80664L8.26224 13.9964Z" fill="white"/>
  <path d="M8.2627 10.2849L12.0171 8.10883L8.2627 6.43359V10.2849Z" fill="white" fill-opacity="0.2"/>
</svg>