<svg width="65" height="66" viewBox="0 0 65 66" fill="none" xmlns="http://www.w3.org/2000/svg" class="size-10">
  <path d="M57.4412 49.6182C56.7431 58.0252 46.97 65.1047 32.3103 64.7507C18.5233 64.3967 8.83739 58.5561 8.22657 50.1492C8.13931 49.0873 8.22657 48.0253 8.31383 46.8749C8.75013 43.6006 9.88451 40.5033 11.5425 37.6715L12.5896 38.114C15.2946 37.0521 18.087 36.2556 20.9665 35.7247C24.7187 35.1937 28.6454 34.4857 32.3976 34.8397L32.7466 34.7512C36.4988 34.4857 39.902 35.2822 43.6541 35.8131C46.5337 36.3441 49.326 37.1406 52.0311 38.2025L53.0782 37.76L53.7763 37.406C55.4342 40.2379 56.5686 43.3351 57.1794 46.6094C57.354 47.5829 57.4412 48.6448 57.354 49.6182" fill="#F4A427"></path>
  <path d="M57.4412 49.6182C56.8304 57.9366 47.1446 64.7507 32.3976 64.6622C18.6105 64.3082 8.92467 58.4676 8.31385 50.0606C8.22659 48.9987 8.31385 47.9368 8.40111 46.7864C9.88453 46.4324 11.368 46.4324 12.8514 46.6979C15.6437 47.1403 17.2144 48.9102 19.2214 49.7952C20.3557 50.3261 21.4901 49.4412 22.5372 48.4678C25.3296 45.7244 29.0817 44.1315 32.9212 44.043C36.8479 43.9546 40.0765 45.5474 43.4796 48.7332C44.1777 49.4412 45.1376 49.8837 46.0974 49.7952C46.97 49.5297 47.8426 49.0872 48.5407 48.4678C51.1585 46.6979 54.2999 45.9899 57.354 46.4324C57.5285 47.5828 57.6157 48.5562 57.4412 49.6182Z" fill="white"></path>
  <path d="M16.9521 28.9113C15.9922 29.8848 14.7705 30.5927 13.4617 30.8582L12.9381 30.9467C12.4145 31.1237 11.891 31.2122 11.2802 31.2122C11.1929 31.2122 11.0184 31.2122 10.9311 31.2122C10.6693 31.1237 10.3203 31.0352 10.0585 30.9467C9.09865 30.5042 8.22605 29.9733 7.44071 29.2653C5.87003 27.9379 4.38661 26.4335 3.25223 24.6636C-1.54707 17.5841 -0.0636472 8.02672 6.56811 2.71707C6.91715 2.45159 7.52797 2.45159 7.87701 2.89406C8.05153 3.15954 8.13879 3.42502 8.05153 3.6905C7.35345 6.52232 6.91715 10.947 9.44769 14.7523C11.7165 18.0265 16.4285 21.1238 19.3081 21.0353C20.0062 24.5751 18.959 26.9645 16.9521 28.9113Z" fill="#F79422"></path>
  <path fill-rule="evenodd" clip-rule="evenodd" d="M6.83391 3.06783C0.384792 8.23546 -1.05425 17.5288 3.61223 24.4124L3.61863 24.4218C4.72072 26.1413 6.16881 27.6135 7.72049 28.9248L7.73104 28.934C8.47057 29.6007 9.29654 30.1067 10.2183 30.5335C10.3338 30.5718 10.4691 30.6111 10.6151 30.6534L10.6205 30.655C10.7454 30.6912 10.8784 30.7297 11.0007 30.7692H11.2801C11.8453 30.7692 12.3227 30.6879 12.8006 30.5264C12.8222 30.5191 12.8444 30.5135 12.8668 30.5097L13.3833 30.4224C14.5961 30.1748 15.7398 29.5149 16.644 28.5979C16.6485 28.5934 16.653 28.5889 16.6577 28.5846C17.6626 27.6504 18.3768 26.628 18.763 25.4324C19.1226 24.3191 19.2072 23.0267 18.945 21.4729C17.4395 21.3962 15.6166 20.6229 13.9155 19.5279C12.0559 18.3309 10.2649 16.7 9.09118 15.0061L9.08636 14.9992C6.452 11.0378 6.91995 6.45781 7.62872 3.58264C7.63143 3.57165 7.63455 3.56078 7.63809 3.55003C7.66187 3.47768 7.65915 3.36509 7.52587 3.15656C7.34077 2.93775 7.01509 2.9333 6.83391 3.06783ZM6.3068 2.36254C6.82086 1.97154 7.70423 1.96558 8.21817 2.6171C8.22605 2.62709 8.2335 2.63742 8.2405 2.64807C8.4423 2.95506 8.61144 3.3623 8.47171 3.81172C7.78671 6.59956 7.38761 10.8587 9.80755 14.5008C10.9027 16.08 12.6009 17.6335 14.3831 18.7807C16.1805 19.9377 17.9872 20.6327 19.2953 20.5925C19.5082 20.586 19.6946 20.7362 19.7364 20.948C20.0969 22.776 20.0349 24.3377 19.5923 25.7079C19.1505 27.0756 18.3401 28.2194 17.2543 29.2305C16.2414 30.2552 14.9471 31.0077 13.5477 31.2915L13.5338 31.2941L13.0434 31.377C12.4851 31.562 11.9243 31.6541 11.2806 31.6541H10.9316C10.8847 31.6541 10.8381 31.6464 10.7936 31.6314C10.6735 31.5908 10.5306 31.5493 10.3754 31.5043L10.3698 31.5027C10.2211 31.4596 10.0609 31.4132 9.92101 31.3659C9.90653 31.361 9.89232 31.3554 9.87843 31.3489C8.89112 30.8938 7.98066 30.3419 7.15657 29.6002C5.57022 28.259 4.05494 26.7251 2.88997 24.909C-2.03709 17.6358 -0.510434 7.82051 6.29823 2.36923L6.3068 2.36254Z" fill="#221F1F"></path>
  <path d="M29.5183 16.6989L28.384 28.0261H28.2967C26.5515 28.2916 24.1955 28.6456 20.9669 29.1765C18 29.619 13.9861 31.7428 11.63 33.1588L11.281 31.3889C11.8046 31.3004 12.4154 31.2119 12.9389 31.1234L13.4625 31.0349C14.7714 30.7694 15.993 30.0615 16.9529 29.088C18.9599 27.0527 20.007 24.7518 19.3089 21.1236L19.658 21.2121C20.7051 20.0616 21.9267 19.1767 23.3229 18.4687C25.2426 17.3183 27.3368 16.7873 29.5183 16.6989Z" fill="#5A595C"></path>
  <path fill-rule="evenodd" clip-rule="evenodd" d="M29.8361 16.3957C29.9227 16.4891 29.9651 16.616 29.9523 16.7435L28.8179 28.0708C28.7953 28.2967 28.6078 28.4685 28.3839 28.4685H28.3291C28.1855 28.4904 28.0377 28.5128 27.8857 28.5359C26.1944 28.7928 23.9781 29.1295 21.0366 29.6133L21.0303 29.6143L21.0302 29.6142C19.6067 29.8266 17.905 30.4484 16.2487 31.2059C14.5985 31.9606 13.0207 32.8372 11.8524 33.5394C11.7307 33.6125 11.5816 33.6213 11.4524 33.5629C11.3231 33.5045 11.2299 33.3862 11.2021 33.2455L10.8531 31.4756C10.8299 31.3581 10.8547 31.2361 10.9218 31.1375C10.9889 31.0389 11.0926 30.9721 11.2092 30.9524C11.4736 30.9077 11.7593 30.8631 12.0417 30.8191L12.0435 30.8188C12.3277 30.7744 12.6085 30.7306 12.8671 30.6869L12.9388 31.1234L12.8671 30.6869L13.3836 30.5996C14.5964 30.352 15.7401 29.6921 16.6443 28.7751C17.6165 27.7891 18.3341 26.7614 18.7317 25.5621C19.1286 24.3648 19.218 22.9621 18.8806 21.2083C18.852 21.0598 18.9003 20.9067 19.0085 20.8026C19.1167 20.6984 19.2699 20.6576 19.4146 20.6943L19.5158 20.7199C20.5594 19.6218 21.761 18.7676 23.114 18.0799C25.102 16.8918 27.2644 16.3474 29.5008 16.2567C29.6271 16.2516 29.7494 16.3023 29.8361 16.3957ZM19.8356 21.6161C20.0759 23.2374 19.9652 24.6181 19.5588 25.8441C19.1056 27.2111 18.2961 28.3515 17.2613 29.4009C16.9793 29.6869 16.6753 29.9518 16.3532 30.1914C17.8949 29.5135 19.4985 28.9487 20.9 28.7392C23.8455 28.2548 26.0654 27.9176 27.7564 27.6607C27.8338 27.649 27.9102 27.6374 27.9854 27.626L29.0326 17.1696C27.0943 17.3125 25.2459 17.8302 23.5447 18.8496C23.536 18.8549 23.527 18.8598 23.5179 18.8645C22.1621 19.552 20.9849 20.4064 19.9785 21.5121C19.9376 21.5571 19.8888 21.5921 19.8356 21.6161ZM13.8647 31.3961C13.7598 31.4229 13.6542 31.4472 13.548 31.4687L13.5341 31.4713L13.0106 31.5598C12.7463 31.6045 12.4606 31.649 12.1783 31.6931L12.1762 31.6934C12.0488 31.7133 11.922 31.7331 11.7976 31.7528L11.9379 32.464C12.5166 32.1263 13.1688 31.7615 13.8647 31.3961Z" fill="#221F1F"></path>
  <path d="M54.9976 37.0526L54.2995 37.4066L53.6014 37.7606L52.5543 38.2031C49.8493 37.1411 47.0569 36.3447 44.1773 35.8137C40.4252 35.1058 36.673 34.7518 32.8336 34.7518C28.9941 34.7518 25.2419 35.0173 21.4898 35.8137C18.6102 36.3447 15.8179 37.1411 13.1128 38.2031C12.7638 38.0261 12.4147 37.8491 12.0657 37.7606L10.495 37.0526C10.5823 35.8137 10.495 35.1058 10.495 33.8668C10.7568 33.6899 11.1931 33.4244 11.6294 33.1589L11.7166 33.0704C13.8981 31.6545 17.9121 29.6191 20.8789 29.0882C24.1076 28.5572 26.3763 28.2032 28.2088 27.9377C29.3432 27.8492 30.5648 27.8492 31.7864 27.8492C33.6189 27.8492 35.2768 27.8492 36.9348 27.9377C38.68 28.2032 41.036 28.5572 44.3519 29.0882C47.406 29.5306 51.4199 31.6545 53.7759 33.0704H53.8632C54.2995 33.3359 54.6486 33.5129 54.9103 33.7783C54.9103 35.1058 54.9103 35.8137 54.9976 37.0526Z" fill="#929497"></path>
  <path fill-rule="evenodd" clip-rule="evenodd" d="M28.2567 28.3778C26.4311 28.6424 24.1695 28.9953 20.9522 29.5244C18.0859 30.0382 14.1614 32.0161 11.9919 33.4173L11.9383 33.4717C11.9131 33.4973 11.8848 33.5197 11.8542 33.5383C11.5133 33.7457 11.1817 33.9476 10.9328 34.1069C10.9358 34.4181 10.944 34.703 10.9519 34.9799C10.9685 35.5565 10.984 36.0987 10.9495 36.7731L12.2102 37.3413C12.5341 37.4285 12.8501 37.577 13.1358 37.7201C15.8103 36.6832 18.5689 35.9026 21.4112 35.3785C25.1955 34.6646 28.975 34.3978 32.8339 34.3978C36.7001 34.3978 40.476 34.7542 44.2478 35.377L44.2558 35.3783C47.1042 35.9035 49.8684 36.6862 52.5483 37.7264L53.4201 37.358L54.5445 36.7878C54.5181 36.2884 54.5181 35.8693 54.5181 35.4523V35.4486C54.5181 34.998 54.518 34.5484 54.4863 33.9858C54.3441 33.8692 54.1712 33.7668 53.9352 33.6269C53.8748 33.5912 53.8103 33.5529 53.7411 33.5114C53.6751 33.506 53.6111 33.4854 53.5539 33.451C51.1962 32.0341 47.2494 29.9548 44.2906 29.5261L44.2842 29.5252C41.3669 29.0581 39.1933 28.728 37.5239 28.4745C37.3045 28.4412 37.0938 28.4093 36.8913 28.3784C35.2538 28.2918 33.6137 28.2917 31.7868 28.2917C30.5667 28.2917 29.3674 28.2919 28.2567 28.3778ZM31.7772 27.4067H31.7934C33.6211 27.4067 35.2887 27.4067 36.9581 27.4958C36.9721 27.4966 36.986 27.498 36.9999 27.5001C37.2086 27.5319 37.4261 27.5649 37.653 27.5994C39.322 27.8527 41.4978 28.1831 44.4172 28.6506C47.5215 29.1014 51.53 31.2143 53.8979 32.6293C53.965 32.6346 54.0301 32.6557 54.0881 32.6909C54.1642 32.7373 54.2417 32.7829 54.3193 32.8286C54.6418 33.0185 54.9679 33.2105 55.2192 33.4654C55.294 33.5412 55.339 33.6419 55.3461 33.7489C55.3907 34.4273 55.3907 34.9483 55.3907 35.4459V35.4486C55.3907 35.9462 55.3908 36.4189 55.4332 37.0211C55.4458 37.1996 55.351 37.3683 55.1931 37.4483L53.7969 38.1563C53.788 38.1608 53.7789 38.1651 53.7696 38.169L52.7225 38.6114C52.6187 38.6553 52.5021 38.6568 52.3972 38.6156C49.7193 37.5644 46.955 36.7757 44.1037 36.2497C40.3725 35.6339 36.6453 35.2827 32.8339 35.2827C29.0143 35.2827 25.2898 35.5468 21.57 36.2487L21.5682 36.249C18.7155 36.775 15.9498 37.5639 13.2707 38.6156C13.1561 38.6607 13.028 38.6545 12.9181 38.5988C12.5591 38.4167 12.2542 38.2643 11.9603 38.1898C11.9358 38.1836 11.9119 38.1753 11.8889 38.1649L10.3182 37.4569C10.1503 37.3812 10.0471 37.207 10.0602 37.0211C10.1154 36.2369 10.0993 35.692 10.0807 35.0612C10.0703 34.7088 10.0591 34.3295 10.0591 33.8668C10.0591 33.7189 10.132 33.5807 10.2534 33.4986C10.5163 33.3209 10.9419 33.0614 11.3592 32.8075L11.4085 32.7575C11.4308 32.7349 11.4553 32.7149 11.4818 32.6977C13.683 31.269 17.7539 29.1982 20.8035 28.6524L20.8095 28.6513C24.0395 28.1201 26.3113 27.7657 28.1475 27.4997C28.1568 27.4983 28.1663 27.4973 28.1757 27.4965C29.3268 27.4067 30.5623 27.4067 31.7772 27.4067Z" fill="#221F1F"></path>
  <path d="M37.0217 28.0261C35.451 27.9376 33.7058 27.8491 31.8733 27.9376C30.6517 27.9376 29.43 28.0261 28.2957 28.0261H28.3829L29.5173 16.6989L29.7791 14.398C30.6517 13.867 31.6988 13.6016 32.6587 13.6016H32.8332C33.8803 13.6016 34.8402 13.867 35.7128 14.398L35.9745 16.6989V16.7874L37.0217 28.0261Z" fill="#929497"></path>
  <path fill-rule="evenodd" clip-rule="evenodd" d="M30.1875 14.6714L29.9514 16.7465L28.8668 27.577C29.2377 27.5691 29.6179 27.5551 30.0069 27.5407L30.0363 27.5396C30.6319 27.5177 31.2468 27.4954 31.8633 27.4951C33.5198 27.4157 35.1031 27.4789 36.54 27.5563L35.5406 16.8289C35.5393 16.8151 35.5386 16.8012 35.5386 16.7873V16.7243L35.305 14.6706C34.5519 14.2532 33.7305 14.044 32.8336 14.044H32.659C31.8392 14.044 30.9493 14.2549 30.1875 14.6714ZM27.9747 27.7267L29.0842 16.6481L29.346 14.3473C29.3616 14.2107 29.4388 14.0893 29.555 14.0186C30.5003 13.4434 31.626 13.1591 32.659 13.1591H32.8336C33.9573 13.1591 34.9952 13.4451 35.9376 14.0186C36.0538 14.0893 36.131 14.2107 36.1466 14.3473L36.4083 16.6481C36.4103 16.6649 36.4112 16.6819 36.4112 16.6988V16.7665L37.4564 27.9844C37.4684 28.1127 37.4246 28.24 37.3365 28.3328C37.2484 28.4257 37.1247 28.475 36.9978 28.4679C35.4271 28.3794 33.7021 28.2922 31.8945 28.3795C31.8875 28.3799 31.8806 28.38 31.8737 28.38C31.272 28.38 30.6689 28.4018 30.068 28.424L30.0311 28.4254C29.4803 28.4457 28.9306 28.466 28.3973 28.4683C28.3927 28.4685 28.388 28.4685 28.3833 28.4685H28.296C28.0551 28.4685 27.8597 28.2704 27.8597 28.0261C27.8597 27.9106 27.9033 27.8055 27.9747 27.7267Z" fill="#221F1F"></path>
  <path fill-rule="evenodd" clip-rule="evenodd" d="M32.3979 34.3087V34.3088C36.264 34.3088 40.0426 34.6653 43.8206 35.378C46.671 35.9037 49.4372 36.6871 52.1188 37.7285L53.0768 37.3548L53.756 37.0104C53.9606 36.9066 54.2095 36.9807 54.3263 37.1802C56.0112 40.0581 57.1631 43.2043 57.783 46.5273L57.7848 46.5367L57.7847 46.5368C57.9624 47.6183 58.0551 48.7207 57.9635 49.7454C57.5984 54.1353 54.6655 58.0266 50.13 60.8044C45.5897 63.5852 39.4005 65.2818 32.3979 65.2818H32.3869L32.3869 65.2816C25.441 65.1033 19.4939 63.5429 15.1913 60.9383C10.8858 58.332 8.19859 54.6575 7.87921 50.2724C7.79249 49.2143 7.87273 48.1603 7.95572 47.0703C7.95929 47.0234 7.96286 46.9765 7.96642 46.9295C7.96706 46.9211 7.96795 46.9126 7.96907 46.9042C8.41401 43.5651 9.57023 40.4117 11.2549 37.5342C11.3658 37.3447 11.5973 37.2669 11.7979 37.3517L12.6836 37.7259C15.3632 36.6859 18.1272 35.9033 20.9752 35.3781C24.7588 34.6642 28.5363 34.3977 32.388 34.3089L32.3979 34.3087ZM32.4029 35.1938C28.5778 35.2821 24.8528 35.5466 21.1339 36.2482L21.1322 36.2486C18.2795 36.7746 15.5138 37.5635 12.8347 38.6152C12.7298 38.6564 12.6132 38.6549 12.5094 38.611L11.8144 38.3173C10.2893 41.009 9.24741 43.9321 8.83548 47.0102C8.83293 47.0438 8.83039 47.0773 8.82785 47.1106C8.74321 48.2243 8.66792 49.2147 8.74897 50.201L8.74932 50.2052C9.04144 54.2261 11.5024 57.6747 15.6386 60.1785C19.7773 62.6838 25.5647 64.2205 32.4035 64.3968C39.2729 64.3959 45.2981 62.7299 49.6789 60.0469C54.0652 57.3605 56.7605 53.6861 57.0941 49.6697L57.0943 49.6667C57.1768 48.7464 57.0954 47.7271 56.9247 46.6869C56.3482 43.5997 55.2998 40.6749 53.7805 37.9874L53.4482 38.1559C53.4356 38.1622 53.4228 38.168 53.4097 38.1731L52.2753 38.6155C52.1742 38.655 52.0622 38.6549 51.9612 38.6152C49.2821 37.5635 46.5164 36.7746 43.6637 36.2486L43.6619 36.2482C39.9375 35.5455 36.2137 35.1941 32.4029 35.1938Z" fill="#221F1F"></path>
  <path d="M61.7173 24.6629C60.4957 26.3443 59.0995 27.9372 57.4416 29.2646C56.6562 29.9725 55.7836 30.5035 54.8238 30.946L54.3875 31.1229L54.1257 31.2114C53.5149 31.3884 53.1658 31.2114 52.0315 31.0345L51.5079 30.8575C50.199 30.592 48.9774 29.884 48.0175 28.9106C46.0105 26.8752 44.9634 24.5744 45.6615 20.9461C48.4538 21.0346 53.2531 17.9373 55.5219 14.663C58.1397 10.9463 57.6161 6.52159 57.0053 3.68978C56.918 3.15881 57.1798 2.71634 57.7034 2.53936C57.9651 2.45086 58.3142 2.53936 58.4887 2.71634C65.1205 8.02599 66.5166 17.5834 61.7173 24.6629Z" fill="#F79422"></path>
  <path fill-rule="evenodd" clip-rule="evenodd" d="M58.0305 2.95976C57.9493 2.94074 57.8804 2.94621 57.8412 2.95945C57.6639 3.01938 57.5569 3.11416 57.4974 3.21288C57.4393 3.30938 57.4084 3.43965 57.434 3.60756C58.0482 6.46076 58.6056 11.0449 55.8778 14.9192C54.7029 16.6142 52.8895 18.2444 51.0207 19.4402C49.3162 20.5309 47.4971 21.3039 46.0267 21.3839C45.7657 22.9747 45.8686 24.2691 46.2385 25.385C46.6361 26.5844 47.3537 27.6121 48.3259 28.598C49.2318 29.5167 50.378 30.1774 51.5934 30.4239C51.6111 30.4275 51.6286 30.4322 51.6458 30.438L52.1345 30.6032C52.4092 30.6467 52.6379 30.6899 52.8324 30.7272L52.8821 30.7368C53.0645 30.7718 53.2075 30.7993 53.3365 30.818C53.5956 30.8555 53.77 30.8534 53.9971 30.7888L54.2373 30.7076L54.6522 30.5393C55.5789 30.1113 56.4088 29.6038 57.1516 28.9342C57.158 28.9285 57.1645 28.9229 57.1711 28.9176C58.7879 27.6232 60.1566 26.0645 61.3617 24.4066C66.0271 17.5181 64.6663 8.22655 58.2182 3.06396C58.2049 3.05325 58.1921 3.04176 58.1801 3.02954C58.1642 3.01341 58.1136 2.97921 58.0305 2.95976ZM58.776 2.38309C58.6201 2.23443 58.4185 2.14236 58.2268 2.09748C58.0244 2.05013 57.7879 2.04466 57.5653 2.11992C57.219 2.23697 56.9333 2.45192 56.7529 2.75143C56.5722 3.05128 56.5159 3.40453 56.5748 3.76285C56.576 3.77015 56.5774 3.77742 56.579 3.78466C57.1853 6.59561 57.6695 10.8527 55.1667 14.4062L55.1648 14.409C54.0708 15.9878 52.3507 17.5428 50.5551 18.6917C48.7444 19.8504 46.9383 20.5442 45.675 20.5042C45.4612 20.4974 45.2741 20.6488 45.2332 20.8617C44.8725 22.7362 44.9576 24.298 45.4114 25.667C45.8646 27.034 46.6741 28.1744 47.7089 29.2238C48.7162 30.2454 50.0031 30.9975 51.3951 31.2861L51.8934 31.4545C51.9167 31.4624 51.9407 31.4683 51.965 31.4721C52.241 31.5152 52.4696 31.5583 52.6701 31.5968C52.6882 31.6002 52.7062 31.6037 52.724 31.6071C52.9003 31.641 53.0633 31.6723 53.2131 31.694C53.5615 31.7445 53.866 31.7472 54.2455 31.6372C54.2515 31.6355 54.2576 31.6336 54.2636 31.6315L54.5254 31.543C54.5335 31.5403 54.5415 31.5373 54.5494 31.5341L54.9857 31.3571C54.9919 31.3546 54.9981 31.3519 55.0042 31.3491C55.9898 30.8948 56.8988 30.344 57.7218 29.6042C59.4146 28.247 60.8338 26.625 62.0685 24.9257L62.0767 24.9139C67.0011 17.6499 65.5749 7.84102 58.776 2.38309Z" fill="#221F1F"></path>
  <path d="M54.2122 31.2119L53.8631 33.1588C51.5071 31.7428 47.4932 29.619 44.4391 29.1765C41.1232 28.6456 38.8544 28.2916 37.022 28.0261L35.8876 16.6989C37.8946 16.7873 39.9015 17.4068 41.734 18.3802C43.1302 19.0882 44.3518 20.0616 45.3989 21.1236L45.748 21.0351C45.0499 24.5748 46.097 26.9642 48.104 28.9995C49.0638 29.973 50.2855 30.6809 51.5944 30.9464C51.6816 30.9464 52.0307 31.1234 52.1179 31.1234C52.7288 31.3889 53.5141 31.3889 54.2122 31.2119Z" fill="#5A595C"></path>
  <path fill-rule="evenodd" clip-rule="evenodd" d="M35.5707 16.3951C35.6576 16.3017 35.7803 16.2512 35.9069 16.2568C37.987 16.3485 40.0549 16.9891 41.9332 17.9863C43.3004 18.6802 44.4993 19.6159 45.5312 20.634L45.6425 20.6058C45.7876 20.569 45.9412 20.6101 46.0494 20.7148C46.1577 20.8195 46.2055 20.9731 46.1762 21.1218C45.8396 22.8286 45.9281 24.2315 46.3259 25.4415C46.7243 26.6536 47.443 27.7031 48.4129 28.6866C49.3171 29.6036 50.4608 30.2635 51.6736 30.5111L52.1874 30.598C52.4783 30.6434 52.7132 30.6888 52.9098 30.7278C52.9361 30.7331 52.9615 30.7381 52.9861 30.743C53.1493 30.7756 53.2761 30.8008 53.393 30.8184C53.637 30.8551 53.8189 30.8556 54.1067 30.7826C54.2505 30.7461 54.4027 30.7862 54.5109 30.889C54.619 30.9917 54.6683 31.1431 54.6418 31.291L54.2928 33.2379C54.2672 33.3804 54.1745 33.5012 54.0446 33.5613C53.9147 33.6214 53.764 33.6132 53.6411 33.5394C51.2834 32.1225 47.3366 30.0432 44.3777 29.6145L44.3714 29.6136L44.3714 29.6135C41.0558 29.0826 38.7897 28.7291 36.9606 28.4641C36.7622 28.4353 36.6085 28.2731 36.5883 28.0708L35.4539 16.7435C35.4411 16.6157 35.4837 16.4885 35.5707 16.3951ZM45.2198 21.5268C45.1725 21.5052 45.1287 21.4748 45.0908 21.4364C44.0685 20.3996 42.8841 19.4579 41.5393 18.776L41.5319 18.7722L41.5319 18.7722C39.9018 17.9062 38.1391 17.3328 36.3742 17.1747L37.422 27.6373C39.1978 27.8974 41.3904 28.2403 44.5043 28.7389C45.7309 28.917 47.0986 29.3546 48.4505 29.9061C48.2215 29.7207 48.0028 29.5222 47.7958 29.3124C46.7587 28.2606 45.9504 27.0977 45.498 25.7213C45.0934 24.4902 44.9816 23.113 45.2198 21.5268ZM51.6387 31.4024C52.3298 31.7646 52.9749 32.1253 53.5457 32.4582L53.6766 31.7276C53.54 31.7275 53.4065 31.715 53.2651 31.6938C53.1263 31.6729 52.9767 31.6431 52.8163 31.6111C52.7918 31.6062 52.7671 31.6013 52.7421 31.5963C52.5493 31.558 52.327 31.5151 52.052 31.4722L52.0466 31.4713L52.0466 31.4713L51.6387 31.4024Z" fill="#221F1F"></path>
  <path fill-rule="evenodd" clip-rule="evenodd" d="M35.5389 16.2563H35.888V17.1424H35.5389V16.2563Z" fill="#221F1F"></path>
  <path d="M53.9505 33.1586C53.8633 33.2472 53.8633 33.2472 53.776 33.3358L53.9505 33.1586Z" fill="#F79422">
  </path>
  <path fill-rule="evenodd" clip-rule="evenodd" d="M53.6427 32.8459L54.2597 33.4725L54.0852 33.6497L53.4681 33.0232L53.6427 32.8459Z" fill="#221F1F"></path>
  <path d="M11.4556 33.1586C11.5428 33.2472 11.5428 33.2472 11.6301 33.3358L11.4556 33.1586Z" fill="#F79422">
  </path>
  <path fill-rule="evenodd" clip-rule="evenodd" d="M11.1466 33.4725L11.7636 32.8459L11.9381 33.0232L11.3211 33.6497L11.1466 33.4725Z" fill="#221F1F"></path>
  <path fill-rule="evenodd" clip-rule="evenodd" d="M32.9212 49.9723C33.1481 49.9723 33.3372 50.1487 33.356 50.378C33.3681 50.5246 33.3688 50.6698 33.359 50.8128C33.4308 51.5307 33.8919 52.1442 34.5537 52.3883C34.5614 52.3911 34.569 52.3941 34.5765 52.3974C35.1197 52.6335 35.6499 52.7077 36.1754 52.6316C36.4139 52.597 36.6349 52.7651 36.669 53.007C36.7031 53.2489 36.5373 53.473 36.2988 53.5076C35.6064 53.6079 34.9188 53.5068 34.2438 53.2156C33.6867 53.0072 33.2305 52.6249 32.9212 52.1426C32.6163 52.6181 32.1685 52.9964 31.6221 53.2067C30.9233 53.6007 30.1182 53.7037 29.3982 53.495C29.1665 53.4279 29.0324 53.183 29.0986 52.948C29.1648 52.7131 29.4062 52.577 29.6379 52.6441C30.1285 52.7863 30.7058 52.7187 31.2213 52.4199C31.2429 52.4075 31.2654 52.3969 31.2887 52.3883C31.9506 52.1442 32.4116 51.5307 32.4834 50.8128C32.4736 50.6698 32.4744 50.5246 32.4864 50.378C32.5053 50.1487 32.6943 49.9723 32.9212 49.9723Z" fill="#171717"></path>
  <path d="M36.237 47.4058C36.237 48.4677 34.6663 49.8836 32.7466 49.8836C30.8269 49.8836 29.2562 48.4677 29.2562 47.4058C29.2562 46.3438 30.8269 45.9899 32.7466 45.9899C34.6663 45.9899 36.237 46.4323 36.237 47.4058Z" fill="#171717"></path>
  <path d="M34.2295 47.0522C34.2295 47.318 33.5315 47.6724 32.7461 47.6724C31.9608 47.6724 31.2627 47.318 31.2627 47.1408C31.2627 46.9636 31.9608 46.9636 32.7461 46.9636C33.5315 46.9636 34.2295 46.7864 34.2295 47.0522Z" fill="white"></path>
  <path fill-rule="evenodd" clip-rule="evenodd" d="M27.3677 49.9734C27.608 49.9908 27.789 50.2026 27.7718 50.4463C27.7012 51.4482 28.3183 52.3039 29.3046 52.5386H29.5181C29.7591 52.5386 29.9544 52.7367 29.9544 52.9811C29.9544 53.2255 29.7591 53.4236 29.5181 53.4236H29.2563C29.2256 53.4236 29.1949 53.4203 29.1649 53.4138C27.733 53.1026 26.7985 51.8446 26.9014 50.3833C26.9186 50.1395 27.1273 49.956 27.3677 49.9734Z" fill="#171717"></path>
  <path fill-rule="evenodd" clip-rule="evenodd" d="M32.8336 48.7336C33.0746 48.7336 33.2699 48.9317 33.2699 49.1761V50.415C33.2699 50.6594 33.0746 50.8575 32.8336 50.8575C32.5927 50.8575 32.3973 50.6594 32.3973 50.415V49.1761C32.3973 48.9317 32.5927 48.7336 32.8336 48.7336Z" fill="#171717"></path>
  <path fill-rule="evenodd" clip-rule="evenodd" d="M38.3564 50.0654C38.5949 50.0309 38.8159 50.199 38.85 50.4409C39.0628 51.9517 37.9925 53.1976 36.5898 53.5024C36.5597 53.5089 36.5291 53.5122 36.4984 53.5122H36.2366C35.9956 53.5122 35.8003 53.3141 35.8003 53.0698C35.8003 52.8254 35.9956 52.6273 36.2366 52.6273H36.4502C37.4661 52.3865 38.1205 51.5196 37.9862 50.566C37.9521 50.3241 38.1179 50.1 38.3564 50.0654Z" fill="#171717"></path>
  <path fill-rule="evenodd" clip-rule="evenodd" d="M61.3593 24.3221C66.0263 17.5239 64.6697 8.22934 58.2184 3.0642L58.7591 2.36963C65.5713 7.82378 67.0071 17.644 62.0754 24.8278L61.3593 24.3221Z" fill="#221F1F"></path>
  <path fill-rule="evenodd" clip-rule="evenodd" d="M6.83391 3.06783C0.384792 8.23546 -1.05425 17.5288 3.61223 24.4124L3.61863 24.4218C4.72072 26.1413 6.16881 27.6135 7.72049 28.9248L7.73104 28.934C8.47057 29.6007 9.29654 30.1067 10.2183 30.5335C10.3338 30.5718 10.4691 30.6111 10.6151 30.6534L10.6205 30.655C10.7454 30.6912 10.8784 30.7297 11.0007 30.7692H11.2801C11.8453 30.7692 12.3227 30.6879 12.8006 30.5264C12.8222 30.5191 12.8444 30.5135 12.8668 30.5097L13.3833 30.4224C14.5961 30.1748 15.7398 29.5149 16.644 28.5979C16.6485 28.5934 16.653 28.5889 16.6577 28.5846C17.6626 27.6504 18.3768 26.628 18.763 25.4324C19.1226 24.3191 19.2072 23.0267 18.945 21.4729C17.4395 21.3962 15.6166 20.6229 13.9155 19.5279C12.0559 18.3309 10.2649 16.7 9.09118 15.0061L9.08636 14.9992C6.452 11.0378 6.91995 6.45781 7.62872 3.58264C7.63143 3.57165 7.63455 3.56078 7.63809 3.55003C7.66187 3.47768 7.65915 3.36509 7.52587 3.15656C7.34077 2.93775 7.01509 2.9333 6.83391 3.06783ZM6.3068 2.36254C6.82086 1.97154 7.70423 1.96558 8.21817 2.6171C8.22605 2.62709 8.2335 2.63742 8.2405 2.64807C8.4423 2.95506 8.61144 3.3623 8.47171 3.81172C7.78671 6.59956 7.38761 10.8587 9.80755 14.5008C10.9027 16.08 12.6009 17.6335 14.3831 18.7807C16.1805 19.9377 17.9872 20.6327 19.2953 20.5925C19.5082 20.586 19.6946 20.7362 19.7364 20.948C20.0969 22.776 20.0349 24.3377 19.5923 25.7079C19.1505 27.0756 18.3401 28.2194 17.2543 29.2305C16.2414 30.2552 14.9471 31.0077 13.5477 31.2915L13.5338 31.2941L13.0434 31.377C12.4851 31.562 11.9243 31.6541 11.2806 31.6541H10.9316C10.8847 31.6541 10.8381 31.6464 10.7936 31.6314C10.6735 31.5908 10.5306 31.5493 10.3754 31.5043L10.3698 31.5027C10.2211 31.4596 10.0609 31.4132 9.92101 31.3659C9.90653 31.361 9.89232 31.3554 9.87843 31.3489C8.89112 30.8938 7.98066 30.3419 7.15657 29.6002C5.57022 28.259 4.05494 26.7251 2.88997 24.909C-2.03709 17.6358 -0.510434 7.82051 6.29823 2.36923L6.3068 2.36254Z" fill="#221F1F"></path>
  <path d="M26.3772 41.6539C26.3772 43.6008 25.2429 45.1052 23.8467 45.1052C22.4505 45.1052 21.3162 43.5123 21.3162 41.6539C21.3162 39.9725 22.1888 38.5566 23.3231 38.2026L26.1155 40.3265C26.29 40.769 26.3772 41.2114 26.3772 41.6539Z" fill="#221F1F"></path>
  <path d="M25.5037 41.2119C25.5037 41.9199 25.0674 42.4509 24.6311 42.4509C24.1948 42.4509 23.7585 41.9199 23.7585 41.2119C23.7585 40.504 24.1948 39.973 24.6311 39.973C25.0674 39.973 25.5037 40.504 25.5037 41.2119Z" fill="white"></path>
  <path d="M23.3231 44.3086C22.3632 45.1051 21.4906 45.99 20.7053 46.9635C20.3562 47.4059 20.0072 47.9369 19.7454 48.5564C19.4836 49.0873 19.3091 49.7068 19.2218 50.3262C19.1346 50.5917 19.1346 50.9457 19.1346 51.2112V51.6537V52.0961C19.1346 52.7156 19.1346 53.335 19.1346 54.043C19.2218 54.6625 19.3091 55.3704 19.3964 55.9899C19.4836 56.3438 19.4836 56.6093 19.5709 56.9633C19.6581 57.2288 19.7454 57.5828 19.9199 57.8482C19.7454 57.5828 19.6581 57.2288 19.4836 56.9633C19.3964 56.6978 19.2218 56.3438 19.1346 56.0784C18.9601 55.4589 18.7855 54.8394 18.611 54.1315C18.5238 53.512 18.4365 52.8041 18.3492 52.1846V51.7422V51.2112C18.3492 50.8572 18.3492 50.5032 18.3492 50.2378C18.4365 49.5298 18.5238 48.8218 18.7855 48.2024C19.0473 47.5829 19.3091 46.9635 19.6581 46.344C20.4435 45.1936 21.2288 44.1317 22.1887 43.2467C22.5377 42.9812 22.974 42.9812 23.3231 43.2467C23.6721 43.4237 23.6721 43.9547 23.3231 44.3086Z" fill="#221F1F"></path>
  <path d="M22.7985 44.0428C22.7113 44.0428 22.7113 44.0428 22.624 44.0428H22.5367H22.3622L21.9259 43.9544C21.6641 43.8659 21.4024 43.8659 21.1406 43.8659C20.617 43.8659 20.0062 43.8659 19.4826 44.0428C19.2209 44.1313 18.9591 44.2198 18.6973 44.3083C17.912 44.6623 17.2139 45.2818 16.7776 45.9897C17.0394 45.3703 17.3011 44.8393 17.7374 44.3968C17.912 44.1313 18.1737 43.9544 18.4355 43.7774C18.6973 43.6004 18.9591 43.4234 19.2209 43.2464C19.7444 42.8924 20.3552 42.7154 21.0533 42.5384C21.4024 42.45 21.6641 42.45 22.0132 42.45C22.1877 42.45 22.3622 42.45 22.5367 42.45H22.8858C23.3221 42.45 23.6711 42.8039 23.7584 43.2464C23.8456 43.6889 23.3221 44.0428 22.7985 44.0428Z" fill="#221F1F"></path>
  <path d="M44.3516 41.6539C44.3516 43.6008 43.2172 45.1052 41.9083 45.1052C40.5994 45.1052 39.2905 43.6008 39.2905 41.6539C39.2905 41.2114 39.3778 40.769 39.465 40.3265L42.2574 38.2026C43.479 38.5566 44.3516 39.9725 44.3516 41.6539Z" fill="#221F1F"></path>
  <path d="M40.2511 41.2119C40.2511 41.9199 40.6874 42.4509 41.1237 42.4509C41.56 42.4509 41.9963 41.9199 41.9963 41.2119C41.9963 40.504 41.56 39.973 41.1237 39.973C40.6874 39.973 40.2511 40.504 40.2511 41.2119Z" fill="white"></path>
  <path d="M43.4792 43.0703C44.439 44.0438 45.2244 45.0172 45.9225 46.1676C46.2715 46.6986 46.6205 47.318 46.8823 47.9375C47.1441 48.557 47.3186 49.2649 47.4059 49.8844C47.4931 50.5923 47.4931 51.2118 47.4059 51.9197C47.3186 52.5392 47.2314 53.2471 47.1441 53.8666C47.0568 54.4861 46.8823 55.1055 46.7078 55.725C46.6205 55.9905 46.5333 56.3444 46.3588 56.6099C46.2715 56.8754 46.097 57.2294 45.9225 57.4949C46.0097 57.2294 46.1842 56.8754 46.2715 56.6099C46.3588 56.3444 46.446 55.9905 46.5333 55.725C46.6205 55.1055 46.7951 54.4861 46.7951 53.8666C46.8823 53.2471 46.8823 52.6277 46.8823 51.9197C46.8823 51.3003 46.7951 50.6808 46.7078 50.0614C46.5333 49.4419 46.3588 48.9109 46.097 48.38C45.8352 47.849 45.4862 47.318 45.0499 46.8756C44.2645 45.9021 43.3919 45.0172 42.4321 44.2207C42.083 43.8668 42.083 43.4243 42.4321 43.0703C42.6938 42.8048 43.1301 42.7163 43.4792 42.9818V43.0703Z" fill="#221F1F"></path>
  <path d="M42.8684 42.4507H43.3047C43.4792 42.4507 43.6537 42.4507 43.8283 42.4507C44.1773 42.4507 44.5263 42.4507 44.8754 42.5392C45.5735 42.6277 46.1843 42.8046 46.7951 43.0701C47.4059 43.3356 47.9295 43.7781 48.453 44.2205C48.8893 44.663 49.2384 45.2825 49.5002 45.8134C49.1511 45.2825 48.7148 44.84 48.1913 44.486C47.6677 44.1321 47.1441 43.8666 46.5333 43.7781C45.9225 43.6896 45.3989 43.6896 44.7881 43.6896C44.5263 43.6896 44.1773 43.7781 43.9155 43.7781L43.4792 43.8666H43.3047H43.2174H43.1302H43.0429C42.6066 43.9551 42.1703 43.6011 42.1703 43.1586C42.0831 42.7162 42.4321 42.2737 42.8684 42.2737C42.9557 42.2737 42.9557 42.2737 43.0429 42.2737" fill="#221F1F"></path>
</svg>