<svg xmlns:xlink="http://www.w3.org/1999/xlink" xmlns="http://www.w3.org/2000/svg" width="32" height="32" fill="none" viewBox="0 0 32 32" class="size-5">
            <circle cx="16" cy="16" r="14" fill="url(&quot;#linear_telegram&quot;)"></circle>
            <path fill="#FFFFFF" d="M22.987 10.209c.124-.806-.642-1.441-1.358-1.127L7.365 15.345c-.514.225-.476 1.003.056 1.173l2.942.937c.562.179 1.17.086 1.66-.253l6.632-4.582c.2-.138.418.147.247.323l-4.774 4.922c-.463.477-.371 1.286.186 1.636l5.345 3.351c.6.376 1.37-.001 1.483-.726z">
            </path>
            <defs>
              <linearGradient id="linear_telegram" x1="16" x2="16" y1="2" y2="30" gradientUnits="userSpaceOnUse">
                <stop stop-color="#37BBFE" stop-opacity="100%"></stop>
                <stop offset="1" stop-color="#007DBB" stop-opacity="100%"></stop>
              </linearGradient>
            <linearGradient id="linear_telegram" x1="16" x2="16" y1="2" y2="30" gradientUnits="userSpaceOnUse">
                <stop stop-color="#37BBFE" stop-opacity="100%"></stop>
                <stop offset="1" stop-color="#007DBB" stop-opacity="100%"></stop>
              </linearGradient></defs>
          </svg>